<mxfile host="app.diagrams.net" modified="2023-09-14T18:50:51.297Z" agent="Mozilla/5.0 (Windows NT 10.0; Win64; x64) AppleWebKit/537.36 (KHTML, like Gecko) Chrome/116.0.0.0 Safari/537.36" etag="GrD9VzSijHjkPyYWx1vG" version="21.3.3" type="device">
  <diagram name="Page-1" id="43-9mfdpaEsGzak9Pexi">
    <mxGraphModel dx="794" dy="424" grid="0" gridSize="10" guides="1" tooltips="1" connect="1" arrows="1" fold="1" page="1" pageScale="1" pageWidth="850" pageHeight="1100" background="none" math="0" shadow="0">
      <root>
        <mxCell id="0" />
        <mxCell id="1" parent="0" />
        <mxCell id="Mx3I_MeMF9yTuk2w7JY9-1" value="" style="rounded=0;whiteSpace=wrap;html=1;" vertex="1" parent="1">
          <mxGeometry x="218" y="234" width="90" height="147" as="geometry" />
        </mxCell>
        <mxCell id="Mx3I_MeMF9yTuk2w7JY9-9" style="edgeStyle=orthogonalEdgeStyle;rounded=0;orthogonalLoop=1;jettySize=auto;html=1;exitX=1;exitY=0.5;exitDx=0;exitDy=0;" edge="1" parent="1" source="Mx3I_MeMF9yTuk2w7JY9-2">
          <mxGeometry relative="1" as="geometry">
            <mxPoint x="217" y="307" as="targetPoint" />
          </mxGeometry>
        </mxCell>
        <mxCell id="Mx3I_MeMF9yTuk2w7JY9-2" value="" style="rounded=1;whiteSpace=wrap;html=1;" vertex="1" parent="1">
          <mxGeometry x="16.5" y="147" width="87" height="320" as="geometry" />
        </mxCell>
        <mxCell id="Mx3I_MeMF9yTuk2w7JY9-4" value="&lt;b&gt;&lt;u style=&quot;font-size: 18px;&quot;&gt;FLIIGHT BOOKING SYSTEM&lt;/u&gt;&lt;/b&gt;" style="text;html=1;align=center;verticalAlign=middle;whiteSpace=wrap;rounded=0;" vertex="1" parent="1">
          <mxGeometry x="10" y="52" width="280" height="30" as="geometry" />
        </mxCell>
        <mxCell id="Mx3I_MeMF9yTuk2w7JY9-6" value="CLIENT" style="text;html=1;strokeColor=none;fillColor=none;align=center;verticalAlign=middle;whiteSpace=wrap;rounded=0;fontStyle=1" vertex="1" parent="1">
          <mxGeometry x="30" y="120" width="60" height="30" as="geometry" />
        </mxCell>
        <mxCell id="Mx3I_MeMF9yTuk2w7JY9-7" value="&lt;b&gt;POSTMAN&lt;/b&gt;" style="text;html=1;strokeColor=none;fillColor=none;align=center;verticalAlign=middle;whiteSpace=wrap;rounded=0;" vertex="1" parent="1">
          <mxGeometry x="16.5" y="473" width="83" height="30" as="geometry" />
        </mxCell>
        <mxCell id="Mx3I_MeMF9yTuk2w7JY9-10" value="API-GATEWAY" style="text;html=1;strokeColor=none;fillColor=none;align=center;verticalAlign=middle;whiteSpace=wrap;rounded=0;" vertex="1" parent="1">
          <mxGeometry x="230" y="199" width="60" height="30" as="geometry" />
        </mxCell>
        <mxCell id="Mx3I_MeMF9yTuk2w7JY9-50" style="edgeStyle=orthogonalEdgeStyle;rounded=0;orthogonalLoop=1;jettySize=auto;html=1;exitX=0.25;exitY=1;exitDx=0;exitDy=0;entryX=0.5;entryY=0;entryDx=0;entryDy=0;" edge="1" parent="1" source="Mx3I_MeMF9yTuk2w7JY9-12" target="Mx3I_MeMF9yTuk2w7JY9-48">
          <mxGeometry relative="1" as="geometry" />
        </mxCell>
        <mxCell id="Mx3I_MeMF9yTuk2w7JY9-12" value="" style="rounded=1;whiteSpace=wrap;html=1;" vertex="1" parent="1">
          <mxGeometry x="435" y="166" width="235" height="276" as="geometry" />
        </mxCell>
        <mxCell id="Mx3I_MeMF9yTuk2w7JY9-13" value="BOOKING-SEARCH" style="rounded=1;whiteSpace=wrap;html=1;" vertex="1" parent="1">
          <mxGeometry x="489.75" y="313" width="120" height="43" as="geometry" />
        </mxCell>
        <mxCell id="Mx3I_MeMF9yTuk2w7JY9-15" value="SEARCH-SERVICE" style="rounded=1;whiteSpace=wrap;html=1;" vertex="1" parent="1">
          <mxGeometry x="489.75" y="247" width="120" height="43" as="geometry" />
        </mxCell>
        <mxCell id="Mx3I_MeMF9yTuk2w7JY9-17" value="&lt;b&gt;FLIGHT-SERVICE&lt;/b&gt;" style="whiteSpace=wrap;html=1;rounded=1;" vertex="1" parent="1">
          <mxGeometry x="489.75" y="188" width="120" height="41" as="geometry" />
        </mxCell>
        <mxCell id="Mx3I_MeMF9yTuk2w7JY9-24" style="edgeStyle=orthogonalEdgeStyle;rounded=0;orthogonalLoop=1;jettySize=auto;html=1;exitX=0.5;exitY=1;exitDx=0;exitDy=0;" edge="1" parent="1">
          <mxGeometry relative="1" as="geometry">
            <mxPoint x="564" y="142" as="sourcePoint" />
            <mxPoint x="564" y="138" as="targetPoint" />
          </mxGeometry>
        </mxCell>
        <mxCell id="Mx3I_MeMF9yTuk2w7JY9-26" value="CHECKIN-SERVICE" style="rounded=1;whiteSpace=wrap;html=1;" vertex="1" parent="1">
          <mxGeometry x="488" y="379" width="120" height="43" as="geometry" />
        </mxCell>
        <mxCell id="Mx3I_MeMF9yTuk2w7JY9-31" value="" style="endArrow=classic;html=1;rounded=0;entryX=0;entryY=0.5;entryDx=0;entryDy=0;" edge="1" parent="1" target="Mx3I_MeMF9yTuk2w7JY9-17">
          <mxGeometry width="50" height="50" relative="1" as="geometry">
            <mxPoint x="309" y="297" as="sourcePoint" />
            <mxPoint x="378" y="284" as="targetPoint" />
          </mxGeometry>
        </mxCell>
        <mxCell id="Mx3I_MeMF9yTuk2w7JY9-32" value="" style="endArrow=classic;html=1;rounded=0;entryX=0;entryY=0.25;entryDx=0;entryDy=0;exitX=1;exitY=0.5;exitDx=0;exitDy=0;" edge="1" parent="1" source="Mx3I_MeMF9yTuk2w7JY9-1" target="Mx3I_MeMF9yTuk2w7JY9-15">
          <mxGeometry width="50" height="50" relative="1" as="geometry">
            <mxPoint x="328" y="334" as="sourcePoint" />
            <mxPoint x="378" y="284" as="targetPoint" />
          </mxGeometry>
        </mxCell>
        <mxCell id="Mx3I_MeMF9yTuk2w7JY9-33" value="" style="endArrow=classic;html=1;rounded=0;" edge="1" parent="1">
          <mxGeometry width="50" height="50" relative="1" as="geometry">
            <mxPoint x="309" y="317" as="sourcePoint" />
            <mxPoint x="486" y="344" as="targetPoint" />
          </mxGeometry>
        </mxCell>
        <mxCell id="Mx3I_MeMF9yTuk2w7JY9-35" value="" style="endArrow=classic;html=1;rounded=0;entryX=0;entryY=0.75;entryDx=0;entryDy=0;" edge="1" parent="1" target="Mx3I_MeMF9yTuk2w7JY9-26">
          <mxGeometry width="50" height="50" relative="1" as="geometry">
            <mxPoint x="310" y="327" as="sourcePoint" />
            <mxPoint x="378" y="284" as="targetPoint" />
          </mxGeometry>
        </mxCell>
        <mxCell id="Mx3I_MeMF9yTuk2w7JY9-36" value="" style="shape=cylinder3;whiteSpace=wrap;html=1;boundedLbl=1;backgroundOutline=1;size=15;" vertex="1" parent="1">
          <mxGeometry x="744" y="258" width="60" height="80" as="geometry" />
        </mxCell>
        <mxCell id="Mx3I_MeMF9yTuk2w7JY9-38" value="" style="endArrow=classic;html=1;rounded=0;entryX=0;entryY=0.5;entryDx=0;entryDy=0;entryPerimeter=0;exitX=1;exitY=0.5;exitDx=0;exitDy=0;" edge="1" parent="1" source="Mx3I_MeMF9yTuk2w7JY9-15" target="Mx3I_MeMF9yTuk2w7JY9-36">
          <mxGeometry width="50" height="50" relative="1" as="geometry">
            <mxPoint x="635" y="289" as="sourcePoint" />
            <mxPoint x="658" y="284" as="targetPoint" />
          </mxGeometry>
        </mxCell>
        <mxCell id="Mx3I_MeMF9yTuk2w7JY9-39" value="" style="endArrow=classic;html=1;rounded=0;exitX=1;exitY=0.5;exitDx=0;exitDy=0;" edge="1" parent="1" source="Mx3I_MeMF9yTuk2w7JY9-26">
          <mxGeometry width="50" height="50" relative="1" as="geometry">
            <mxPoint x="608" y="334" as="sourcePoint" />
            <mxPoint x="742" y="324" as="targetPoint" />
          </mxGeometry>
        </mxCell>
        <mxCell id="Mx3I_MeMF9yTuk2w7JY9-40" value="" style="endArrow=classic;html=1;rounded=0;" edge="1" parent="1">
          <mxGeometry width="50" height="50" relative="1" as="geometry">
            <mxPoint x="608" y="334" as="sourcePoint" />
            <mxPoint x="743" y="310" as="targetPoint" />
          </mxGeometry>
        </mxCell>
        <mxCell id="Mx3I_MeMF9yTuk2w7JY9-41" value="" style="endArrow=classic;html=1;rounded=0;entryX=0;entryY=0;entryDx=0;entryDy=27.5;entryPerimeter=0;exitX=1;exitY=0.5;exitDx=0;exitDy=0;" edge="1" parent="1" source="Mx3I_MeMF9yTuk2w7JY9-17" target="Mx3I_MeMF9yTuk2w7JY9-36">
          <mxGeometry width="50" height="50" relative="1" as="geometry">
            <mxPoint x="608" y="334" as="sourcePoint" />
            <mxPoint x="658" y="284" as="targetPoint" />
          </mxGeometry>
        </mxCell>
        <mxCell id="Mx3I_MeMF9yTuk2w7JY9-46" value="Discovery Server" style="text;html=1;strokeColor=none;fillColor=none;align=center;verticalAlign=middle;whiteSpace=wrap;rounded=0;" vertex="1" parent="1">
          <mxGeometry x="596" y="476" width="60" height="30" as="geometry" />
        </mxCell>
        <mxCell id="Mx3I_MeMF9yTuk2w7JY9-47" value="" style="rounded=0;whiteSpace=wrap;html=1;" vertex="1" parent="1">
          <mxGeometry x="591" y="472" width="64" height="37" as="geometry" />
        </mxCell>
        <mxCell id="Mx3I_MeMF9yTuk2w7JY9-54" style="edgeStyle=orthogonalEdgeStyle;rounded=0;orthogonalLoop=1;jettySize=auto;html=1;exitX=1;exitY=0.5;exitDx=0;exitDy=0;entryX=0;entryY=0.5;entryDx=0;entryDy=0;" edge="1" parent="1" source="Mx3I_MeMF9yTuk2w7JY9-48" target="Mx3I_MeMF9yTuk2w7JY9-49">
          <mxGeometry relative="1" as="geometry" />
        </mxCell>
        <mxCell id="Mx3I_MeMF9yTuk2w7JY9-48" value="Management" style="rounded=0;whiteSpace=wrap;html=1;" vertex="1" parent="1">
          <mxGeometry x="447" y="475" width="104" height="34" as="geometry" />
        </mxCell>
        <mxCell id="Mx3I_MeMF9yTuk2w7JY9-55" style="edgeStyle=orthogonalEdgeStyle;rounded=0;orthogonalLoop=1;jettySize=auto;html=1;exitX=0.5;exitY=0;exitDx=0;exitDy=0;entryX=0.807;entryY=0.998;entryDx=0;entryDy=0;entryPerimeter=0;" edge="1" parent="1" source="Mx3I_MeMF9yTuk2w7JY9-49" target="Mx3I_MeMF9yTuk2w7JY9-12">
          <mxGeometry relative="1" as="geometry" />
        </mxCell>
        <mxCell id="Mx3I_MeMF9yTuk2w7JY9-49" value="Discovery Server" style="text;html=1;strokeColor=none;fillColor=none;align=center;verticalAlign=middle;whiteSpace=wrap;rounded=0;" vertex="1" parent="1">
          <mxGeometry x="591" y="477" width="60" height="30" as="geometry" />
        </mxCell>
        <mxCell id="Mx3I_MeMF9yTuk2w7JY9-56" value="MONGODB" style="text;html=1;strokeColor=none;fillColor=none;align=center;verticalAlign=middle;whiteSpace=wrap;rounded=0;" vertex="1" parent="1">
          <mxGeometry x="748" y="349" width="60" height="30" as="geometry" />
        </mxCell>
        <mxCell id="Mx3I_MeMF9yTuk2w7JY9-57" value="&lt;b&gt;&lt;font style=&quot;font-size: 14px;&quot;&gt;MICR0SERVICES ARCHITECTURE DIAGRAM&lt;/font&gt;&lt;/b&gt;" style="text;html=1;strokeColor=none;fillColor=none;align=center;verticalAlign=middle;whiteSpace=wrap;rounded=0;" vertex="1" parent="1">
          <mxGeometry x="386" y="75" width="287.5" height="30" as="geometry" />
        </mxCell>
        <mxCell id="Mx3I_MeMF9yTuk2w7JY9-58" value="&lt;b&gt;&lt;font style=&quot;font-size: 14px;&quot;&gt;CASE-STUDY :&lt;/font&gt;&lt;/b&gt;" style="text;html=1;strokeColor=none;fillColor=none;align=center;verticalAlign=middle;whiteSpace=wrap;rounded=0;" vertex="1" parent="1">
          <mxGeometry x="25" y="27" width="105.5" height="30" as="geometry" />
        </mxCell>
      </root>
    </mxGraphModel>
  </diagram>
</mxfile>
